HIERARCHY
ROOT Hips
{
	OFFSET 0.000000 0.000000 0.000000 
	CHANNELS 6 Xposition Yposition Zposition Zrotation Yrotation Xrotation
	JOINT LeftUpLeg
	{
		OFFSET 1.363060 -1.794630 0.839290 
		CHANNELS 3 Zrotation Yrotation Xrotation
		JOINT LeftLeg
		{
			OFFSET 2.448110 -6.726130 0.000000 
			CHANNELS 3 Zrotation Yrotation Xrotation
			JOINT LeftFoot
			{
				OFFSET 2.562200 -7.039590 0.000000 
				CHANNELS 3 Zrotation Yrotation Xrotation
				JOINT LeftToeBase
				{
					OFFSET 0.157640 -0.433110 2.322550 
					CHANNELS 3 Zrotation Yrotation Xrotation
					End Site
					{
						OFFSET 0.000000 0.000000 0.000000 
					}
				}
			}
		}
	}
	JOINT RightUpLeg
	{
		OFFSET -1.305520 -1.794630 0.839290 
		CHANNELS 3 Zrotation Yrotation Xrotation
		JOINT RightLeg
		{
			OFFSET -2.542530 -6.985550 0.000000 
			CHANNELS 3 Zrotation Yrotation Xrotation
			JOINT RightFoot
			{
				OFFSET -2.568260 -7.056230 0.000000 
				CHANNELS 3 Zrotation Yrotation Xrotation
				JOINT RightToeBase
				{
					OFFSET -0.164730 -0.452590 2.363150 
					CHANNELS 3 Zrotation Yrotation Xrotation
					End Site
					{
						OFFSET 0.000000 0.000000 0.000000 
					}
				}
			}
		}
	}
	JOINT Spine
	{
		OFFSET 0.028270 2.035590 -0.193380 
		CHANNELS 3 Zrotation Yrotation Xrotation
		JOINT Spine1
		{
			OFFSET 0.056720 2.048850 -0.042750 
			CHANNELS 3 Zrotation Yrotation Xrotation
			JOINT Neck1
			{
				OFFSET -0.054170 1.746240 0.172020 
				CHANNELS 3 Zrotation Yrotation Xrotation
				JOINT Head
				{
					OFFSET 0.104070 1.761360 -0.123970 
					CHANNELS 3 Zrotation Yrotation Xrotation
					End Site
					{
						OFFSET 0.000000 0.000000 0.000000 
					}
				}
			}
			JOINT LeftArm
			{
				OFFSET 3.362410 1.200890 -0.311210 
				CHANNELS 3 Zrotation Yrotation Xrotation
				JOINT LeftForeArm
				{
					OFFSET 4.983000 -0.000000 -0.000000 
					CHANNELS 3 Zrotation Yrotation Xrotation
					JOINT LeftHand
					{
						OFFSET 3.483560 -0.000000 -0.000000 
						CHANNELS 3 Zrotation Yrotation Xrotation
						JOINT LeftHandIndex1
						{
							OFFSET 0.715260 -0.000000 -0.000000 
							CHANNELS 3 Zrotation Yrotation Xrotation
							End Site
							{
								OFFSET 0.000000 0.000000 0.000000 
							}
						}
					}
				}
			}
			JOINT RightArm
			{
				OFFSET -3.136600 1.374050 -0.404650 
				CHANNELS 3 Zrotation Yrotation Xrotation
				JOINT RightForeArm
				{
					OFFSET -5.241900 -0.000000 -0.000000 
					CHANNELS 3 Zrotation Yrotation Xrotation
					JOINT RightHand
					{
						OFFSET -3.444170 -0.000000 -0.000000 
						CHANNELS 3 Zrotation Yrotation Xrotation
						JOINT RightHandIndex1
						{
							OFFSET -0.622530 -0.000000 -0.000000 
							CHANNELS 3 Zrotation Yrotation Xrotation
							End Site
							{
								OFFSET 0.000000 0.000000 0.000000 
							}
						}
					}
				}
			}
		}
	}
}
MOTION
Frames: 7
Frame Time: 0.041667
-0.660953 18.335677 5.373121 -0.864093 -3.890716 -0.735283 -13.361524 -6.306514 -4.640471 0.767471 6.661195 22.351843 -1.460070 10.572651 -16.698772 8.276700 -16.319000 -53.553100 2.825643 1.973306 -1.539960 0.040375 0.824189 1.452576 0.332863 -0.787617 5.835508 0.000000 0.000000 0.000000 -3.320553 4.008503 30.829791 -1.505055 2.663778 -16.882585 6.356198 -9.729787 41.370296 0.605900 -3.352800 13.918400 -86.281736 -4.812682 49.890906 92.763126 -57.404889 -58.403252 0.338200 1.009894 3.667563 -7.125000 0.000000 0.000000 88.138212 7.655253 55.313279 -96.081821 55.477994 -57.567142 1.928370 -1.065661 33.967452 7.125000 0.000000 0.000000 
-0.661345 18.334305 5.372631 -0.830493 -3.810245 -0.768592 -13.383212 -6.278264 -4.633200 0.769043 6.660571 22.349744 -1.469196 10.580503 -16.614684 8.303800 -16.338200 -53.649800 2.825944 1.972933 -1.540706 0.040504 0.823607 1.452345 0.332612 -0.788162 5.835161 0.000000 0.000000 0.000000 -3.374360 4.044696 30.784517 -1.522387 2.685136 -16.849855 7.088420 -10.500022 41.488841 0.802700 -3.654200 14.032900 -86.680113 -5.128094 51.440729 94.051364 -57.300531 -59.572474 0.285421 1.040281 3.188509 -7.125000 0.000000 0.000000 87.859193 7.755618 54.822030 -95.348557 55.642197 -56.829191 1.883375 -1.096805 34.789708 7.125000 0.000000 0.000000 
-0.659874 18.334207 5.373611 -0.762754 -3.731527 -0.756693 -13.420253 -6.261670 -4.677476 0.772815 6.667051 22.360478 -1.465417 10.540961 -16.531660 8.305400 -16.339300 -53.655400 2.822266 1.973955 -1.539066 0.040977 0.825088 1.453065 0.333034 -0.786396 5.835093 0.000000 0.000000 0.000000 -3.684512 4.096138 30.742560 -1.492543 2.687361 -16.764786 7.570056 -11.117754 41.386532 0.927000 -3.921600 14.041200 -87.127794 -5.518298 52.787469 94.947200 -57.226432 -60.389269 0.243126 1.067564 2.675920 -7.125000 0.000000 0.000000 87.455121 7.821466 54.834132 -94.904272 55.730776 -56.357862 1.850558 -1.117799 34.681459 7.125000 0.000000 0.000000 
-0.658992 18.334991 5.373709 -0.698537 -3.589541 -0.756598 -13.442187 -6.296271 -4.729672 0.783964 6.687120 22.410891 -1.443317 10.435033 -16.459567 8.307300 -16.340700 -53.662000 2.817267 1.975231 -1.536398 0.041585 0.827171 1.454002 0.333696 -0.783984 5.835144 0.000000 0.000000 0.000000 -4.062306 4.142869 30.705269 -1.437315 2.682518 -16.710117 7.785418 -11.637175 41.123899 0.967300 -4.184600 13.960000 -87.493751 -6.199207 54.181992 94.706936 -57.271151 -60.152171 0.227405 1.090826 2.078068 -7.125000 0.000000 0.000000 86.844162 7.834420 55.171313 -94.893941 55.711081 -56.315850 1.827882 -1.110991 33.827779 7.125000 0.000000 0.000000 
-0.659776 18.333422 5.368513 -0.639448 -3.407962 -0.892632 -13.427920 -6.240516 -4.734388 0.809288 6.730020 22.526888 -1.416501 10.284644 -16.301883 8.318300 -16.348500 -53.701400 2.809812 1.977802 -1.532319 0.042316 0.830824 1.455781 0.334828 -0.779785 5.835423 0.000000 0.000000 0.000000 -4.568531 4.216676 30.645969 -1.398482 2.671778 -16.782119 8.283441 -12.320914 40.986048 1.082900 -4.479600 13.961400 -87.744750 -6.879471 55.624145 94.189193 -57.346293 -59.660253 0.216886 1.112037 1.587286 -7.125000 0.000000 0.000000 86.018685 7.819155 55.636949 -95.358799 55.577939 -56.750953 1.807874 -1.070932 32.267796 7.125000 0.000000 0.000000 
-0.650461 18.334011 5.356551 -0.585896 -3.325042 -0.884688 -13.451367 -6.419136 -4.811923 0.820075 6.779979 22.632633 -1.420942 10.324544 -16.348072 8.293400 -16.330800 -53.612600 2.799653 1.981063 -1.526975 0.043366 0.835375 1.458302 0.336350 -0.774320 5.835460 0.000000 0.000000 0.000000 -5.299918 4.341385 30.406997 -1.397228 2.646001 -16.861799 8.873405 -13.020522 40.924026 1.226500 -4.766600 13.984900 -87.961077 -7.355295 56.975974 93.931412 -57.391924 -59.402470 0.204861 1.127387 1.277652 -7.125000 0.000000 0.000000 84.907394 7.692295 56.441435 -96.350204 55.307751 -57.750555 1.785687 -0.979968 29.287893 7.125000 0.000000 0.000000 
-0.621341 18.335776 5.338215 -0.514408 -3.459976 -0.768710 -13.579892 -6.828789 -4.909736 0.812280 6.836727 22.729235 -1.467997 10.632967 -16.696166 8.247800 -16.298500 -53.450300 2.784471 1.986573 -1.519177 0.044766 0.842597 1.462477 0.338877 -0.765624 5.835641 0.000000 0.000000 0.000000 -6.328247 4.569919 30.061907 -1.458990 2.619907 -16.921669 9.218637 -13.565153 40.718816 1.299900 -5.016800 13.910800 -88.163012 -7.772764 58.199383 93.828643 -57.420126 -59.242680 0.209792 1.130974 1.172548 -7.125000 0.000000 0.000000 83.552194 7.397762 57.750363 -97.912280 54.889552 -59.419883 1.748592 -0.804481 24.262994 7.125000 0.000000 0.000000 
